<?xml version="1.0" encoding="utf-8"?>
<svg viewBox="0 0 22 22" fill="none" xmlns="http://www.w3.org/2000/svg">
    <path opacity="0.5" d="M1 11C1 6.28595 1 3.92893 2.46447 2.46447C3.92893 1 6.28595 1 11 1C15.714 1 18.0711 1 19.5355 2.46447C21 3.92893 21 6.28595 21 11C21 15.714 21 18.0711 19.5355 19.5355C18.0711 21 15.714 21 11 21C6.28595 21 3.92893 21 2.46447 19.5355C1 18.0711 1 15.714 1 11Z" fill="#1C274C"/>
    <path d="M12.4881 5.44591C12.8882 5.55311 13.1256 5.96437 13.0184 6.36447L10.4302 16.0237C10.323 16.4238 9.91169 16.6613 9.51159 16.5541C9.11149 16.4468 8.8741 16.0356 8.98131 15.6355L11.5695 5.97624C11.6767 5.57614 12.088 5.3387 12.4881 5.44591Z" fill="#1C274C"/>
    <path d="M13.9697 7.46967C14.2626 7.17678 14.7374 7.17678 15.0303 7.46967L15.2387 7.67801C15.874 8.3133 16.4038 8.84308 16.7678 9.32017C17.1521 9.82379 17.4216 10.3559 17.4216 11C17.4216 11.6441 17.1521 12.1762 16.7678 12.6798C16.4038 13.1569 15.874 13.6867 15.2387 14.322L15.0303 14.5303C14.7374 14.8232 14.2626 14.8232 13.9697 14.5303C13.6768 14.2374 13.6768 13.7626 13.9697 13.4697L14.1412 13.2981C14.8229 12.6164 15.2797 12.1574 15.5753 11.7699C15.8577 11.3998 15.9216 11.1843 15.9216 11C15.9216 10.8157 15.8577 10.6002 15.5753 10.2301C15.2797 9.84262 14.8229 9.38357 14.1412 8.70191L13.9697 8.53033C13.6768 8.23744 13.6768 7.76257 13.9697 7.46967Z" fill="#1C274C"/>
    <path d="M6.96986 7.46967C7.26275 7.17678 7.73762 7.17678 8.03052 7.46967C8.32341 7.76257 8.32341 8.23744 8.03052 8.53033L7.85894 8.70191C7.17729 9.38357 6.72052 9.84262 6.42488 10.2301C6.14245 10.6002 6.07861 10.8157 6.07861 11C6.07861 11.1843 6.14245 11.3998 6.42488 11.7699C6.72052 12.1574 7.17729 12.6164 7.85894 13.2981L8.03052 13.4697C8.32341 13.7626 8.32341 14.2374 8.03052 14.5303C7.73762 14.8232 7.26275 14.8232 6.96986 14.5303L6.76151 14.322C6.12617 13.6867 5.59638 13.1569 5.23235 12.6798C4.84811 12.1762 4.57861 11.6441 4.57861 11C4.57861 10.3559 4.84811 9.82379 5.23235 9.32017C5.59638 8.84308 6.12617 8.3133 6.76151 7.67801L6.96986 7.46967Z" fill="#1C274C"/>
</svg>
