<svg xmlns="http://www.w3.org/2000/svg" width="56" height="56" version="1.1">
  <path style="fill:#3e50b4" d="M 6.75,0 C 5.2265,0 4,1.2488 4,2.8 v 50.399999 c 0,1.55008 1.2265,2.8 2.75,2.8 h 38.5 c 1.5224,0 2.75,-1.24992 2.75,-2.8 v -35.2 l -14,-4 L 30,0 Z" />
  <path style="opacity:0.2" d="M 48,18.999999 30,1 v 15.187499 c 0,1.55925 1.2555,2.8125 2.8125,2.8125 z" />
  <path style="fill:#7482d0" d="M 48,17.999999 30,0 v 15.187499 c 0,1.55925 1.2555,2.8125 2.8125,2.8125 z" />
  <path style="opacity:0.2;fill:#ffffff" d="M 6.75,0 C 5.2265,0 4,1.2495812 4,2.8007812 v 1 C 4,2.2495813 5.2265,1 6.75,1 H 30 V 0 Z" />
  <path style="opacity:0.2" d="m 14,27.999999 v 3 h 24 v -3 z m 0,6 v 3 h 24 v -3 z m 0,6 v 3 h 24 v -3 z m 0,6 v 3 h 15 v -3 z" />
  <path style="fill:#ffffff" d="m 14,26.999999 v 3 h 24 v -3 z m 0,6 v 3 h 24 v -3 z m 0,6 v 3 h 24 v -3 z m 0,6 v 3 h 15 v -3 z" />
</svg>
